<?xml version="1.0" encoding="UTF-8" standalone="no"?>
<!-- Created with Inkscape (http://www.inkscape.org/) -->

<svg
   xmlns:dc="http://purl.org/dc/elements/1.1/"
   xmlns:cc="http://creativecommons.org/ns#"
   xmlns:rdf="http://www.w3.org/1999/02/22-rdf-syntax-ns#"
   xmlns:svg="http://www.w3.org/2000/svg"
   xmlns="http://www.w3.org/2000/svg"
   xmlns:sodipodi="http://sodipodi.sourceforge.net/DTD/sodipodi-0.dtd"
   xmlns:inkscape="http://www.inkscape.org/namespaces/inkscape"
   width="200"
   height="300"
   id="svg3073"
   version="1.1"
   inkscape:version="0.48.5 r10040"
   sodipodi:docname="New document 2">
  <defs
     id="defs3075" />
  <sodipodi:namedview
     id="base"
     pagecolor="#ffffff"
     bordercolor="#666666"
     borderopacity="1.0"
     inkscape:pageopacity="0.0"
     inkscape:pageshadow="2"
     inkscape:zoom="0.67554198"
     inkscape:cx="109.02669"
     inkscape:cy="348.68492"
     inkscape:document-units="px"
     inkscape:current-layer="layer1"
     showgrid="false"
     inkscape:window-width="1307"
     inkscape:window-height="744"
     inkscape:window-x="53"
     inkscape:window-y="24"
     inkscape:window-maximized="1"
     fit-margin-top="0"
     fit-margin-left="0"
     fit-margin-right="0"
     fit-margin-bottom="0" />
  <metadata
     id="metadata3078">
    <rdf:RDF>
      <cc:Work
         rdf:about="">
        <dc:format>image/svg+xml</dc:format>
        <dc:type
           rdf:resource="http://purl.org/dc/dcmitype/StillImage" />
        <dc:title></dc:title>
      </cc:Work>
    </rdf:RDF>
  </metadata>
  <g
     inkscape:label="Layer 1"
     inkscape:groupmode="layer"
     id="layer1"
     transform="translate(-126.93838,-591.25031)">
    <path
       inkscape:connector-curvature="0"
       sodipodi:nodetypes="czzcczzcc"
       id="path4054"
       d="m 232.72187,687.48509 c 0,0 27.07491,-11.46995 33.41585,-1.00544 6.34094,10.46452 4.48301,46.06393 -6.15755,65.67813 -10.64055,19.61421 -27.2583,19.04721 -27.2583,19.04721 l 0,14.82584 c 0,0 17.3896,-1.83538 36.08175,-26.04181 18.69215,-24.20643 17.14185,-84.58361 2.73394,-91.93951 -14.4079,-7.35591 -38.81569,0.40548 -38.81569,0.40548 z"
       style="fill:#28170b;fill-opacity:1;fill-rule:evenodd;stroke:none" />
    <path
       transform="matrix(1.8612675,0,0,0.42079034,-293.32748,406.01433)"
       d="m 289.04358,657.93817 c 0,36.91545 -13.88453,66.84133 -31.01196,66.84133 -17.12744,0 -31.01197,-29.92588 -31.01197,-66.84133 0,-36.91544 13.88453,-66.84132 31.01197,-66.84132 17.12743,0 31.01196,29.92588 31.01196,66.84132 z"
       sodipodi:ry="66.841324"
       sodipodi:rx="31.011967"
       sodipodi:cy="657.93817"
       sodipodi:cx="258.03162"
       id="path4014"
       style="fill:#ececec;fill-opacity:1;stroke:none"
       sodipodi:type="arc" />
    <path
       sodipodi:type="arc"
       style="fill:#784421;fill-opacity:1;stroke:none"
       id="path4016"
       sodipodi:cx="205.73236"
       sodipodi:cy="853.1908"
       sodipodi:rx="58.111191"
       sodipodi:ry="20.6201"
       d="m 263.84355,853.1908 c 0,11.38816 -26.01726,20.6201 -58.11119,20.6201 -32.09392,0 -58.11119,-9.23194 -58.11119,-20.6201 0,-11.38817 26.01727,-20.6201 58.11119,-20.6201 32.09393,0 58.11119,9.23193 58.11119,20.6201 z"
       transform="matrix(0.8220984,0,0,1.1535236,17.806135,-273.9395)" />
    <path
       style="fill:#28170b;fill-opacity:1;stroke:none"
       d="m 186.93838,652.90625 c -33.13708,0 -60,13.07193 -60,29.21875 0,0.32592 0.0408,0.6454 0.0625,0.96875 l -0.0625,0 0,119.09375 0.0312,0 c 0.75354,15.82754 27.30578,28.53125 59.96875,28.53125 32.66239,0 59.21431,-12.7041 59.96875,-28.53125 l 0.0312,0 0,-119.09375 -0.0312,0 c 0.0217,-0.32318 0.0312,-0.643 0.0312,-0.96875 0,-16.14682 -26.86292,-29.21875 -60,-29.21875 z m 0,1.84375 c 31.87874,0 57.71875,12.59134 57.71875,28.125 0,15.53366 -25.84001,28.125 -57.71875,28.125 -31.87874,0 -57.71875,-12.59134 -57.71875,-28.125 0,-15.53366 25.84001,-28.125 57.71875,-28.125 z"
       id="path4008"
       inkscape:connector-curvature="0" />
    <g
       id="g4047"
       transform="translate(0.99999841,0)">
      <path
         style="fill:#ffccaa;fill-opacity:1;fill-rule:evenodd;stroke:none"
         d="m 162.13183,676.74715 c -4.50461,-14.87271 3.00204,-29.46778 4.85478,-44.09882 1.43614,-11.04562 -5.05339,-20.92227 -10.03642,-30.29528 -2.66026,-4.88558 0.78676,4.02952 0.74517,6.24672 1.5199,13.11218 -6.04014,25.05904 -6.38793,38.03573 -0.82781,9.11816 2.01094,18.17752 7.17498,25.74173 1.03759,1.45693 5.99559,10.28049 3.64942,4.36992 z"
         id="path4041"
         inkscape:connector-curvature="0" />
      <path
         inkscape:connector-curvature="0"
         id="path4043"
         d="m 215.65389,676.74715 c -4.5046,-14.8727 3.00204,-29.46777 4.85478,-44.0988 1.43615,-11.04564 -5.05338,-20.92229 -10.03641,-30.2953 -2.66026,-4.88556 0.78675,4.02953 0.74517,6.24673 1.51989,13.11218 -6.04014,25.05904 -6.38794,38.03572 -0.8278,9.11818 2.01094,18.17752 7.17498,25.74173 1.03759,1.45694 5.9956,10.28049 3.64942,4.36992 z"
         style="fill:#ffccaa;fill-opacity:1;fill-rule:evenodd;stroke:none" />
      <path
         inkscape:connector-curvature="0"
         id="path4045"
         d="m 188.89286,667.08633 c -4.50461,-14.87271 3.00204,-29.46777 4.85478,-44.0988 1.43614,-11.04564 -5.05339,-20.92229 -10.03642,-30.29529 -2.66026,-4.88558 0.78676,4.02951 0.74517,6.24671 1.5199,13.11218 -6.04014,25.05905 -6.38793,38.03573 -0.82781,9.11818 2.01094,18.17752 7.17498,25.74173 1.03759,1.45695 5.99559,10.2805 3.64942,4.36992 z"
         style="fill:#ffccaa;fill-opacity:1;fill-rule:evenodd;stroke:none" />
    </g>
  </g>
</svg>
