<svg width="201" height="32" viewBox="0 0 201 32" fill="none" xmlns="http://www.w3.org/2000/svg">
<path d="M56.3357 9.29583V11.5998C54.5917 13.3438 53.1597 15.5518 52.0397 18.2238C50.9197 20.8798 50.3117 23.4718 50.2157 25.9998H47.2157C47.2797 23.7278 47.9437 21.1918 49.2077 18.3918C50.4717 15.5758 51.9437 13.3838 53.6237 11.8158H44.8877V9.29583H56.3357Z" fill="#0C1F31"/>
<path d="M69.8636 22.1358C69.5596 23.4798 68.8956 24.5278 67.8716 25.2798C66.8636 26.0318 65.6556 26.4078 64.2476 26.4078C62.3756 26.4078 60.8876 25.8078 59.7836 24.6078C58.6956 23.3918 58.1516 21.8398 58.1516 19.9518C58.1516 18.0158 58.7116 16.4158 59.8316 15.1518C60.9676 13.8878 62.4076 13.2558 64.1516 13.2558C65.9596 13.2558 67.3916 13.8798 68.4476 15.1278C69.5036 16.3598 70.0316 18.0478 70.0316 20.1918V20.4798H60.8876C60.9196 21.7278 61.2316 22.6958 61.8236 23.3838C62.4156 24.0558 63.2396 24.3918 64.2956 24.3918C65.0476 24.3918 65.6556 24.2158 66.1196 23.8638C66.5996 23.4958 66.9756 22.9198 67.2476 22.1358H69.8636ZM67.2956 18.6558C67.2156 17.6158 66.8876 16.7998 66.3116 16.2078C65.7516 15.5998 65.0236 15.2958 64.1276 15.2958C63.2316 15.2958 62.5036 15.5838 61.9436 16.1598C61.3996 16.7358 61.0636 17.5678 60.9356 18.6558H67.2956Z" fill="#0C1F31"/>
<path d="M78.8556 18.1278V20.6718H71.8236V18.1278H78.8556Z" fill="#0C1F31"/>
<path d="M96.4397 19.4958C96.2797 21.5918 95.5277 23.2718 94.1837 24.5358C92.8557 25.7838 91.1277 26.4078 88.9997 26.4078C86.5837 26.4078 84.6477 25.5918 83.1917 23.9598C81.7357 22.3278 81.0077 20.1598 81.0077 17.4558C81.0077 15.8238 81.3197 14.3438 81.9437 13.0158C82.5677 11.6718 83.5037 10.5918 84.7517 9.77583C85.9997 8.94383 87.4637 8.52783 89.1437 8.52783C90.9517 8.52783 92.5277 9.03183 93.8717 10.0398C95.2157 11.0318 96.0237 12.4718 96.2957 14.3598H93.3197C93.1117 13.3358 92.6317 12.5358 91.8797 11.9598C91.1277 11.3678 90.1997 11.0718 89.0957 11.0718C87.9597 11.0718 86.9917 11.3918 86.1917 12.0318C85.4077 12.6718 84.8477 13.4638 84.5117 14.4078C84.1917 15.3358 84.0317 16.3518 84.0317 17.4558C84.0317 18.2878 84.1277 19.0718 84.3197 19.8078C84.5117 20.5438 84.7997 21.2238 85.1837 21.8478C85.5677 22.4558 86.0877 22.9438 86.7437 23.3118C87.4157 23.6798 88.1917 23.8638 89.0717 23.8638C91.6157 23.8638 93.0717 22.4078 93.4397 19.4958H96.4397Z" fill="#0C1F31"/>
<path d="M104.496 13.2558C106.384 13.2558 107.888 13.8478 109.008 15.0318C110.128 16.2158 110.688 17.8078 110.688 19.8078C110.688 21.8238 110.128 23.4238 109.008 24.6078C107.904 25.7918 106.4 26.3838 104.496 26.3838C102.56 26.3838 101.024 25.7918 99.888 24.6078C98.752 23.4238 98.184 21.8238 98.184 19.8078C98.184 17.8078 98.752 16.2158 99.888 15.0318C101.04 13.8478 102.576 13.2558 104.496 13.2558ZM106.992 16.5918C106.384 15.8078 105.536 15.4158 104.448 15.4158C103.36 15.4158 102.504 15.8078 101.88 16.5918C101.256 17.3758 100.944 18.4478 100.944 19.8078C100.944 21.1998 101.256 22.2878 101.88 23.0718C102.504 23.8558 103.368 24.2478 104.472 24.2478C105.544 24.2478 106.384 23.8558 106.992 23.0718C107.616 22.2718 107.928 21.1758 107.928 19.7838C107.928 18.4238 107.616 17.3598 106.992 16.5918Z" fill="#0C1F31"/>
<path d="M115.603 13.6158V15.3678C116.627 13.9758 117.923 13.2798 119.491 13.2798C120.307 13.2798 121.011 13.4638 121.603 13.8318C122.211 14.1998 122.659 14.7198 122.947 15.3918C123.939 13.9838 125.275 13.2798 126.955 13.2798C128.123 13.2798 129.091 13.6318 129.859 14.3358C130.627 15.0238 131.011 15.9838 131.011 17.2158V25.9998H128.275V18.3918C128.275 17.5118 128.123 16.8238 127.819 16.3278C127.515 15.8318 126.931 15.5838 126.067 15.5838C125.187 15.5838 124.515 15.8638 124.051 16.4238C123.587 16.9678 123.355 17.7358 123.355 18.7278V25.9998H120.619V18.2478C120.619 17.3678 120.483 16.7038 120.211 16.2558C119.955 15.8078 119.411 15.5838 118.579 15.5838C117.651 15.5838 116.947 15.8878 116.467 16.4958C115.987 17.0878 115.747 17.8798 115.747 18.8718V25.9998H113.011V13.6158H115.603Z" fill="#0C1F31"/>
<path d="M136.485 13.6158V15.3678C137.509 13.9758 138.805 13.2798 140.373 13.2798C141.189 13.2798 141.893 13.4638 142.485 13.8318C143.093 14.1998 143.541 14.7198 143.829 15.3918C144.821 13.9838 146.157 13.2798 147.837 13.2798C149.005 13.2798 149.973 13.6318 150.741 14.3358C151.509 15.0238 151.893 15.9838 151.893 17.2158V25.9998H149.157V18.3918C149.157 17.5118 149.005 16.8238 148.701 16.3278C148.397 15.8318 147.813 15.5838 146.949 15.5838C146.069 15.5838 145.397 15.8638 144.933 16.4238C144.469 16.9678 144.237 17.7358 144.237 18.7278V25.9998H141.501V18.2478C141.501 17.3678 141.365 16.7038 141.093 16.2558C140.837 15.8078 140.293 15.5838 139.461 15.5838C138.533 15.5838 137.829 15.8878 137.349 16.4958C136.869 17.0878 136.629 17.8798 136.629 18.8718V25.9998H133.893V13.6158H136.485Z" fill="#0C1F31"/>
<path d="M165.84 22.1358C165.536 23.4798 164.872 24.5278 163.848 25.2798C162.84 26.0318 161.632 26.4078 160.224 26.4078C158.352 26.4078 156.864 25.8078 155.76 24.6078C154.672 23.3918 154.128 21.8398 154.128 19.9518C154.128 18.0158 154.688 16.4158 155.808 15.1518C156.944 13.8878 158.384 13.2558 160.128 13.2558C161.936 13.2558 163.368 13.8798 164.424 15.1278C165.48 16.3598 166.008 18.0478 166.008 20.1918V20.4798H156.864C156.896 21.7278 157.208 22.6958 157.8 23.3838C158.392 24.0558 159.216 24.3918 160.272 24.3918C161.024 24.3918 161.632 24.2158 162.096 23.8638C162.576 23.4958 162.952 22.9198 163.224 22.1358H165.84ZM163.272 18.6558C163.192 17.6158 162.864 16.7998 162.288 16.2078C161.728 15.5998 161 15.2958 160.104 15.2958C159.208 15.2958 158.48 15.5838 157.92 16.1598C157.376 16.7358 157.04 17.5678 156.912 18.6558H163.272Z" fill="#0C1F31"/>
<path d="M175.096 13.3758V15.9918C174.616 15.9438 174.296 15.9198 174.136 15.9198C171.752 15.9198 170.56 17.4638 170.56 20.5518V25.9998H167.848V13.6158H170.416V16.0878C171.296 14.2478 172.68 13.3278 174.568 13.3278L175.096 13.3758Z" fill="#0C1F31"/>
<path d="M187.336 21.3198C187.144 22.8398 186.536 24.0558 185.512 24.9678C184.488 25.8638 183.2 26.3118 181.648 26.3118C179.792 26.3118 178.312 25.7278 177.208 24.5598C176.104 23.3758 175.552 21.8318 175.552 19.9278C175.552 17.8798 176.104 16.2558 177.208 15.0558C178.328 13.8398 179.832 13.2318 181.72 13.2318C183.304 13.2318 184.576 13.6318 185.536 14.4318C186.512 15.2318 187.08 16.3438 187.24 17.7678H184.528C184.368 16.9838 184.048 16.3838 183.568 15.9678C183.088 15.5518 182.48 15.3438 181.744 15.3438C180.688 15.3438 179.856 15.7438 179.248 16.5438C178.64 17.3278 178.336 18.4078 178.336 19.7838C178.336 21.1598 178.624 22.2318 179.2 22.9998C179.792 23.7678 180.608 24.1518 181.648 24.1518C182.464 24.1518 183.128 23.9118 183.64 23.4318C184.168 22.9358 184.504 22.2318 184.648 21.3198H187.336Z" fill="#0C1F31"/>
<path d="M200.528 22.1358C200.224 23.4798 199.56 24.5278 198.536 25.2798C197.528 26.0318 196.32 26.4078 194.912 26.4078C193.04 26.4078 191.552 25.8078 190.448 24.6078C189.36 23.3918 188.816 21.8398 188.816 19.9518C188.816 18.0158 189.376 16.4158 190.496 15.1518C191.632 13.8878 193.072 13.2558 194.816 13.2558C196.624 13.2558 198.056 13.8798 199.112 15.1278C200.168 16.3598 200.696 18.0478 200.696 20.1918V20.4798H191.552C191.584 21.7278 191.896 22.6958 192.488 23.3838C193.08 24.0558 193.904 24.3918 194.96 24.3918C195.712 24.3918 196.32 24.2158 196.784 23.8638C197.264 23.4958 197.64 22.9198 197.912 22.1358H200.528ZM197.96 18.6558C197.88 17.6158 197.552 16.7998 196.976 16.2078C196.416 15.5998 195.688 15.2958 194.792 15.2958C193.896 15.2958 193.168 15.5838 192.608 16.1598C192.064 16.7358 191.728 17.5678 191.6 18.6558H197.96Z" fill="#0C1F31"/>
<path d="M6.66667 29.3332H25.3333C26.804 29.3332 28 28.1372 28 26.6665V11.9998C28 11.6462 27.8595 11.3071 27.6095 11.057C27.3594 10.807 27.0203 10.6665 26.6667 10.6665H22.6667V9.33317C22.6667 5.65717 19.676 2.6665 16 2.6665C12.324 2.6665 9.33333 5.65717 9.33333 9.33317V10.6665H5.33333C4.97971 10.6665 4.64057 10.807 4.39052 11.057C4.14048 11.3071 4 11.6462 4 11.9998V26.6665C4 28.1372 5.196 29.3332 6.66667 29.3332ZM12 9.33317C12 7.12784 13.7947 5.33317 16 5.33317C18.2053 5.33317 20 7.12784 20 9.33317V10.6665H12V9.33317ZM6.66667 13.3332H9.33333V15.9998H12V13.3332H20V15.9998H22.6667V13.3332H25.3333L25.336 26.6665H6.66667V13.3332Z" fill="#F82929"/>
</svg>
